Coordinates
version=1
nRows=13
nColumns=34
inDegrees=yes

Units are S.I. units (second, meters, Newtons, ...)
If the header above contains a line with 'inDegrees', this indicates whether rotational values are in degrees (yes) or radians (no).

endheader
time	pelvis_tilt	pelvis_list	pelvis_rotation	pelvis_tx	pelvis_ty	pelvis_tz	hip_flexion_r	hip_adduction_r	hip_rotation_r	knee_angle_r	ankle_angle_r	subtalar_angle_r	mtp_angle_r	hip_flexion_l	hip_adduction_l	hip_rotation_l	knee_angle_l	ankle_angle_l	subtalar_angle_l	mtp_angle_l	lumbar_extension	lumbar_bending	lumbar_rotation	arm_flex_r	arm_add_r	arm_rot_r	elbow_flex_r	pro_sup_r	arm_flex_l	arm_add_l	arm_rot_l	elbow_flex_l	pro_sup_l
      3.13333330	     -3.60145570	      3.02997628	     -4.53918534	      0.55332716	      0.89205024	     -0.01590910	      6.90530603	      1.49932359	     -1.94333829	      5.65749676	     15.12009561	      0.33829524	      0.00000000	     17.56616263	     -8.93966086	    -17.65211280	     24.78289740	      3.90032220	    -10.75039451	      0.00000000	      0.03471684	      0.00344462	      4.01595278	     68.54010436	     13.38718274	     71.23769310	    121.58870515	     98.49475392	     46.28804654	      8.92601349	     49.16744681	    119.42121892	     78.84245014
      3.15000000	     -3.35018331	      3.22373832	     -4.73420104	      0.55432210	      0.88903932	     -0.01339095	      6.66540638	      1.48946912	     -1.87966420	      5.70437948	     15.12618282	      0.39730484	      0.00000000	     18.21389311	     -9.48622134	    -17.72730431	     25.11844999	      3.90717465	    -10.68064945	      0.00000000	     -0.07604670	     -0.30202832	      4.09894544	     68.65226977	     13.36929629	     71.14205907	    121.56156259	     98.47622380	     46.28431285	      8.92669701	     49.19496749	    119.46052955	     78.85185413
      3.16666670	     -3.27241817	      3.22634689	     -4.94841274	      0.55552207	      0.88772919	     -0.01088311	      6.69206564	      1.64052251	     -1.75531340	      6.00595531	     15.27469842	      0.53072340	      0.00000000	     18.96416986	    -10.39083229	    -18.44126932	     24.95379023	      4.81553026	     -9.46226024	      0.00000000	     -0.09577283	     -0.24746270	      4.54847199	     69.17939755	     13.13761542	     70.50897334	    121.73524675	     98.26176982	     46.84239861	      9.18824601	     49.51082007	    119.40305241	     78.94014065
      3.18333330	     -3.08229777	      3.29981601	     -4.96666552	      0.55641663	      0.88520025	     -0.00938042	      6.51847324	      1.64954089	     -1.70397631	      6.18255506	     15.30464607	      0.56017424	      0.00000000	     19.46825078	    -10.88341493	    -18.40672745	     24.00051137	      4.97874876	     -9.38324002	      0.00000000	     -0.03257890	     -0.30662671	      4.53001576	     69.57230595	     13.03467539	     70.33982567	    121.67021086	     98.23395463	     47.14264770	      9.27685063	     49.43274416	    119.35313146	     78.94227976
      3.20000000	     -2.51716030	      3.31259487	     -5.05696243	      0.55428764	      0.88326757	     -0.00612430	      6.09225541	      1.72482065	     -1.55794252	      6.51460687	     15.78391842	      0.60048740	      0.00000000	     19.67986410	    -11.50071722	    -18.61728423	     22.67871766	      5.53766165	     -8.60096026	      0.00000000	     -0.77253970	     -0.34028215	      5.14797262	     70.44929826	     12.62110658	     70.04621723	    121.66013971	     97.98579698	     48.27784403	      9.68596452	     49.68866183	    118.78687603	     78.98815728
      3.21666670	     -2.37705801	      3.33361563	     -5.04160099	      0.55444376	      0.88718204	     -0.00108754	      6.12840091	      1.89506648	     -1.45489998	      6.84829404	     15.96991769	      0.60818323	      0.00000000	     20.28636816	    -12.07384914	    -18.36419607	     21.03999776	      5.10160348	     -8.30133087	      0.00000000	     -1.06661906	     -0.40485203	      5.40070666	     70.48614565	     12.51532589	     70.08271523	    121.57893793	     97.94825947	     48.51610875	      9.54785343	     49.62570555	    118.82546766	     78.98617434
      3.23333330	     -2.15288439	      3.35522331	     -5.16787906	      0.55587859	      0.88864869	      0.00202401	      6.03939797	      2.07487229	     -1.23664913	      7.22003445	     16.23918174	      0.67882350	      0.00000000	     20.61275736	    -12.62111242	    -18.29471873	     19.08471967	      4.14852741	     -8.20432019	      0.00000000	     -1.36338106	     -0.60074277	      5.28182245	     70.29650465	     12.80127521	     70.42218110	    121.59341841	     97.91005362	     48.62927125	      9.44730864	     49.83469193	    118.27450345	     78.96335118
      3.25000000	     -1.88429534	      3.35436993	     -5.43502329	      0.55636760	      0.88382000	      0.00408896	      6.01314433	      2.23246316	     -1.08040765	      7.84486718	     16.57240070	      0.74673267	      0.00000000	     20.81461281	    -13.09852908	    -18.27418520	     17.22162051	      2.66892296	     -8.96572349	      0.00000000	     -1.75731404	     -0.77971067	      5.43981141	     70.60184166	     12.85435831	     70.44008394	    121.64929794	     97.81815660	     49.12039324	      9.69299084	     50.01316545	    117.71499729	     78.89392795
      3.26666670	     -1.58136394	      3.32716975	     -5.67478191	      0.55889463	      0.88775857	      0.00787987	      5.75931486	      2.42727391	     -1.03227558	      8.22791294	     16.77328937	      0.94734931	      0.00000000	     20.92865797	    -13.47226530	    -17.63247401	     15.32826929	      0.50570305	    -10.25253391	      0.00000000	     -2.13572638	     -0.92786715	      6.04013954	     70.45873471	     12.88288080	     70.52922784	    121.96415370	     97.67221191	     48.87574783	      9.92017632	     50.84003583	    118.02062052	     78.78874621
      3.28333330	     -1.35990648	      3.38762165	     -5.85392726	      0.55739166	      0.88556731	      0.01013955	      5.65624106	      2.55493846	     -1.03022139	      8.56873261	     17.04240541	      1.02650216	      0.00000000	     21.30880355	    -13.72979890	    -17.59761902	     13.75778346	     -1.59022674	    -11.14215174	      0.00000000	     -2.43340674	     -1.15557717	      6.24768156	     70.40070173	     12.93349246	     70.56307038	    122.11962750	     97.58881254	     48.85774601	     10.21000617	     51.11558126	    117.80737683	     78.69219816
      3.30000000	     -1.01857341	      3.42413140	     -6.05064751	      0.55842874	      0.88877742	      0.01423381	      5.31945688	      2.68073031	     -0.93228024	      8.80062305	     17.26569858	      1.16870370	      0.00000000	     21.51303852	    -13.84947010	    -17.11806626	     12.06484637	     -4.18121971	    -12.56413916	      0.00000000	     -2.89824971	     -1.36577622	      6.64009887	     70.11878644	     13.00563014	     70.61450378	    122.69567526	     97.50217356	     48.57046053	     10.25266116	     51.58977785	    118.09889266	     78.56638964
      3.31666670	     -0.78406918	      3.45910484	     -6.25989461	      0.55743417	      0.89119874	      0.01664286	      5.07548190	      2.76299204	     -1.01175059	      8.93011000	     17.15792945	      1.24876677	      0.00000000	     21.87005907	    -13.87309692	    -17.07251115	     10.64016823	     -6.31028857	    -12.80898449	      0.00000000	     -3.21763542	     -1.55186068	      6.85778228	     69.93385884	     12.96127909	     71.04423762	    122.68098665	     97.49171814	     48.33173860	     10.27272231	     51.86653612	    117.98512559	     78.48975325
      3.33333330	     -0.50111547	      3.41052912	     -6.24105498	      0.55955215	      0.89310665	      0.01711597	      4.62164018	      2.84699408	     -1.13590080	      8.85151505	     17.19202527	      1.21269888	      0.00000000	     22.25785731	    -13.79678815	    -16.75724022	      9.33146286	     -7.86833296	    -12.38278895	      0.00000000	     -3.49762177	     -1.45934387	      7.02885559	     69.71337089	     12.83702329	     71.27442859	    122.63249578	     97.49462273	     48.04184777	     10.36468059	     52.00010542	    117.96490492	     78.45568699
